<?xml version="1.0" encoding="UTF-8"?>
<svg width="1440px" height="2294px" viewBox="0 0 1440 2294" version="1.1" xmlns="http://www.w3.org/2000/svg" xmlns:xlink="http://www.w3.org/1999/xlink">
    <!-- Generator: Sketch 59 (86127) - https://sketch.com -->
    <title>Combined Shape</title>
    <desc>Created with Sketch.</desc>
    <g id="Page-1" stroke="none" stroke-width="1" fill="none" fill-rule="evenodd" fill-opacity="0.3">
        <g id="Homepage---wide-Copy-7" transform="translate(0.000000, -552.000000)" fill="#ECECE4">
            <g id="bg" transform="translate(-630.000000, 468.000000)">
                <path d="M1013.74959,1209.4132 L1013.74959,2011.4132 L621.749588,2011.4132 L621.749588,1209.4132 L1013.74959,1209.4132 Z M2249.39677,1209.2095 L2249.39677,2011.2095 L1857.39677,2011.2095 L1857.39677,1209.2095 L2249.39677,1209.2095 Z M2659.33579,1209.17429 L2659.33579,2011.17429 L2267.33579,2011.17429 L2267.33579,1209.17429 L2659.33579,1209.17429 Z M602.944544,1208.94841 L602.944544,2010.94841 L210.944544,2010.94841 L210.944544,1208.94841 L602.944544,1208.94841 Z M1836.40777,1618.59785 L1836.40777,2010.59785 L1034.40777,2010.59785 L1034.40777,1618.59785 L1836.40777,1618.59785 Z M1836.37256,1208.65883 L1836.37256,1600.65883 L1034.37256,1600.65883 L1034.37256,1208.65883 L1836.37256,1208.65883 Z M1013.86124,797.290227 L1013.86124,1189.29023 L211.861241,1189.29023 L211.861241,797.290227 L1013.86124,797.290227 Z M2659.94744,796.185295 L2659.94744,1188.18529 L1857.94744,1188.18529 L1857.94744,796.185295 L2659.94744,796.185295 Z M1837.78926,386.134623 L1837.78926,1188.13462 L1445.78926,1188.13462 L1445.78926,386.134623 L1837.78926,386.134623 Z M1426.11819,385.16983 L1426.11819,1187.16983 L1034.11819,1187.16983 L1034.11819,385.16983 L1426.11819,385.16983 Z M1012.59398,385.485184 L1012.59398,777.485184 L210.593983,777.485184 L210.593983,385.485184 L1012.59398,385.485184 Z M2660.41223,385.380251 L2660.41223,777.380251 L1858.41223,777.380251 L1858.41223,385.380251 L2660.41223,385.380251 Z" id="Combined-Shape" transform="translate(1435.503108, 1198.291516) rotate(-21.000000) translate(-1435.503108, -1198.291516) "></path>
            </g>
        </g>
    </g>
</svg>