<?xml version="1.0" encoding="utf-8"?>
<!-- Generator: Adobe Illustrator 23.1.1, SVG Export Plug-In . SVG Version: 6.00 Build 0)  -->
<svg version="1.1" id="Layer_1" xmlns="http://www.w3.org/2000/svg" xmlns:xlink="http://www.w3.org/1999/xlink" x="0px" y="0px"
	 viewBox="0 0 460.9 114.8" style="enable-background:new 0 0 460.9 114.8;" xml:space="preserve">
<style type="text/css">
	.st0{fill:#BB1215;}
	.st1{fill:url(#SVGID_1_);}
	.st2{fill:url(#SVGID_2_);}
	.st3{fill:url(#SVGID_3_);}
	.st4{fill:url(#SVGID_4_);}
	.st5{fill:url(#SVGID_5_);}
	.st6{fill:url(#SVGID_6_);}
	.st7{fill:url(#SVGID_7_);}
	.st8{fill:url(#SVGID_8_);}
	.st9{fill:url(#SVGID_9_);}
	.st10{fill:url(#SVGID_10_);}
	.st11{fill:url(#SVGID_11_);}
	.st12{fill:url(#SVGID_12_);}
	.st13{fill:url(#SVGID_13_);}
	.st14{fill:url(#SVGID_14_);}
	.st15{fill:url(#SVGID_15_);}
	.st16{fill:#414A4C;}
</style>
<g>
	<path class="st0" d="M69.9,56.8c0.1,0.1,0.3,0.2,0.4,0.3c9.3,3.5,14.3,10.4,15.8,20c1.1,7.3,0.3,14.5-2.9,21.2
		c-3.8,8-10.6,12.3-18.8,14.6c-5.2,1.5-10.6,2-16,2c-15.5,0.1-31.1,0-46.6,0.1c-1.3,0-1.8-0.3-1.8-1.7C0,78.9,0,44.6,0,10.4
		c0-0.5,0-1,0.1-1.6c0.6,0,1.2,0,1.7,0c15.9,0,31.9,0,47.8,0c5.3,0,10.6,0.7,15.6,2.4c11.3,3.7,17.1,11.6,17.2,23.5
		c0.1,9.1-3.8,16-11.3,21c-0.4,0.3-0.8,0.6-1.2,0.8C69.9,56.6,69.9,56.6,69.9,56.8z M27.7,92.6c0.5,0,0.9,0.1,1.3,0.1
		c3.6,0,7.2,0,10.8,0c4,0,8.1,0,12.1-0.3c5.3-0.4,8.9-3.3,10-7.8c0.4-1.6,0.5-3.4,0.4-5c-0.2-4.1-1.8-7.7-5.7-9.5
		c-1.9-0.9-4-1.5-6-1.6c-7.3-0.2-14.7-0.1-22-0.1c-0.2,0-0.5,0.1-0.8,0.1C27.7,76.5,27.7,84.5,27.7,92.6z M27.7,50.3
		c0.2,0.1,0.4,0.1,0.5,0.1c6.8,0,13.7,0.1,20.5,0c5.6-0.1,9.4-4.3,9.6-9.9c0.2-5.9-3.2-9.9-9-10.2c-6.9-0.3-13.8-0.1-20.7-0.2
		c-1.1,0-1,0.7-1,1.4c0,5.9,0,11.8,0,17.7C27.6,49.5,27.7,49.9,27.7,50.3z"/>
	<path class="st0" d="M456.1,114.8c-0.5,0-1,0.1-1.4,0.1c-6.4,0-12.8,0-19.2,0c-1,0-1.6-0.3-2.1-1.3c-9.2-17.6-18.4-35.1-27.5-52.7
		c-0.2-0.3-0.3-0.6-0.9-0.9c0,0.5,0,1.1,0,1.6c0,17,0,34.1,0,51.1c0,2,0,2-2,2c-5.4,0-10.9,0-16.3,0c-0.5,0-1.1,0-1.8,0
		c0-29.5,0-58.9,0-88.4c0.6,0,1.1,0,1.6,0c6.2,0,12.5,0,18.7,0c1.2,0,1.8,0.4,2.4,1.4c9,17.2,18.1,34.3,27.2,51.5
		c0.2,0.4,0.4,0.8,0.9,1.2c0-18,0-35.9,0-54c6.9,0,13.5,0,20.3,0C456.1,55.9,456.1,85.2,456.1,114.8z"/>
	<path class="st0" d="M230,114.8c0-29.6,0-58.9,0-88.4c0.6,0,1.1,0,1.7,0c11.9,0,23.8-0.2,35.7,0.1c13.3,0.3,24.5,5.1,31.9,16.6
		c3.8,5.9,5.7,12.4,6.4,19.3c1,9.4,0.6,18.7-2.6,27.7c-5.1,14.3-15.4,22.2-30.3,24.2c-3.3,0.4-6.6,0.5-9.9,0.5
		c-10.4,0.1-20.8,0-31.2,0C231.3,114.8,230.8,114.8,230,114.8z M251.7,46.2c0,16.4,0,32.6,0,48.9c6.5-0.1,13,0.4,19.3-1.2
		c6.5-1.7,10.6-5.8,12.3-12.2c1.8-6.7,2-13.4,0.4-20.2c-1.9-7.7-6.7-12.6-14.6-14.4C263.4,45.7,257.6,46.4,251.7,46.2z"/>
	<g>
		<linearGradient id="SVGID_1_" gradientUnits="userSpaceOnUse" x1="311.1001" y1="70.6734" x2="378.1561" y2="70.6734">
			<stop  offset="0" style="stop-color:#2C3539"/>
			<stop  offset="1" style="stop-color:#414A4C"/>
		</linearGradient>
		<path class="st1" d="M311.2,26.5c22.1,0,44,0,65.9,0c0,6.1,0,12,0,18.2c-0.6,0-1.3,0.1-1.9,0.1c-13.5,0-27.1,0-40.6,0
			c-1.5,0-2,0.4-1.9,1.9c0.1,4,0,8,0,12c0,0.5,0,1,0.1,1.7c13.5,0,27,0,40.5,0c0,6,0,11.7,0,17.7c-0.7,0-1.3,0.1-1.9,0.1
			c-12.3,0-24.6,0-36.9,0c-1.4,0-1.9,0.4-1.8,1.8c0.1,4.5,0.1,9,0,13.5c0,1.3,0.4,1.7,1.7,1.7c13.9,0,27.9,0,41.8,0
			c0.6,0,1.2,0,1.9,0c0,6.6,0,13.1,0,19.7c-0.6,0-1,0.1-1.5,0.1c-21.2,0-42.5,0-63.7,0c-1.3,0-1.8-0.3-1.8-1.7c0-28.3,0-56.7,0-85
			C311.1,27.6,311.2,27.1,311.2,26.5z"/>
		<path class="st0" d="M311.2,26.5c22.1,0,44,0,65.9,0c0,6.1,0,12,0,18.2c-0.6,0-1.3,0.1-1.9,0.1c-13.5,0-27.1,0-40.6,0
			c-1.5,0-2,0.4-1.9,1.9c0.1,4,0,8,0,12c0,0.5,0,1,0.1,1.7c13.5,0,27,0,40.5,0c0,6,0,11.7,0,17.7c-0.7,0-1.3,0.1-1.9,0.1
			c-12.3,0-24.6,0-36.9,0c-1.4,0-1.9,0.4-1.8,1.8c0.1,4.5,0.1,9,0,13.5c0,1.3,0.4,1.7,1.7,1.7c13.9,0,27.9,0,41.8,0
			c0.6,0,1.2,0,1.9,0c0,6.6,0,13.1,0,19.7c-0.6,0-1,0.1-1.5,0.1c-21.2,0-42.5,0-63.7,0c-1.3,0-1.8-0.3-1.8-1.7c0-28.3,0-56.7,0-85
			C311.1,27.6,311.2,27.1,311.2,26.5z"/>
	</g>
	<g>
		<linearGradient id="SVGID_2_" gradientUnits="userSpaceOnUse" x1="90.929" y1="70.6203" x2="157.8991" y2="70.6203">
			<stop  offset="0" style="stop-color:#2C3539"/>
			<stop  offset="1" style="stop-color:#414A4C"/>
		</linearGradient>
		<path class="st2" d="M152.9,60.3c0,6,0,11.8,0,17.8c-13.5,0-26.9,0-40.4,0c0,5.7,0,11.2,0,16.9c15.1,0,30.2,0,45.4,0
			c0,6.6,0,13.1,0,19.7c-22.3,0-44.6,0-67,0c0-29.3,0-58.7,0-88.1c21.9,0,43.8,0,65.8,0c0,6,0,12,0,18.2c-14.7,0-29.4,0-44.3,0
			c0,5.3,0,10.3,0,15.6C125.9,60.3,139.3,60.3,152.9,60.3z"/>
		<path class="st0" d="M152.9,60.3c0,6,0,11.8,0,17.8c-13.5,0-26.9,0-40.4,0c0,5.7,0,11.2,0,16.9c15.1,0,30.2,0,45.4,0
			c0,6.6,0,13.1,0,19.7c-22.3,0-44.6,0-67,0c0-29.3,0-58.7,0-88.1c21.9,0,43.8,0,65.8,0c0,6,0,12,0,18.2c-14.7,0-29.4,0-44.3,0
			c0,5.3,0,10.3,0,15.6C125.9,60.3,139.3,60.3,152.9,60.3z"/>
	</g>
	<g>
		<linearGradient id="SVGID_3_" gradientUnits="userSpaceOnUse" x1="162.7587" y1="59.3481" x2="228.0256" y2="59.3481">
			<stop  offset="0" style="stop-color:#2C3539"/>
			<stop  offset="1" style="stop-color:#414A4C"/>
		</linearGradient>
		<path class="st3" d="M184.3,3.9c0,30.6,0,60.8,0,91.1c14.5,0,29,0,43.7,0c-0.4,0.6-0.6,0.9-0.8,1.2c-5.6,6-11.2,12-16.8,17.9
			c-0.4,0.4-1,0.7-1.5,0.7c-15.1,0-30.3,0-45.4,0c-0.1,0-0.3-0.1-0.6-0.1c0-0.5-0.1-1-0.1-1.6c0-28.4,0-56.8,0-85.2
			c0-0.8,0.3-1.7,0.8-2.3c6.5-6.9,13-13.8,19.6-20.7C183.4,4.7,183.7,4.5,184.3,3.9z"/>
		<path class="st0" d="M184.3,3.9c0,30.6,0,60.8,0,91.1c14.5,0,29,0,43.7,0c-0.4,0.6-0.6,0.9-0.8,1.2c-5.6,6-11.2,12-16.8,17.9
			c-0.4,0.4-1,0.7-1.5,0.7c-15.1,0-30.3,0-45.4,0c-0.1,0-0.3-0.1-0.6-0.1c0-0.5-0.1-1-0.1-1.6c0-28.4,0-56.8,0-85.2
			c0-0.8,0.3-1.7,0.8-2.3c6.5-6.9,13-13.8,19.6-20.7C183.4,4.7,183.7,4.5,184.3,3.9z"/>
	</g>
	<g>
		<linearGradient id="SVGID_4_" gradientUnits="userSpaceOnUse" x1="200.442" y1="25.3677" x2="215.2913" y2="25.3677">
			<stop  offset="0" style="stop-color:#2C3539"/>
			<stop  offset="1" style="stop-color:#414A4C"/>
		</linearGradient>
		<path class="st4" d="M215.3,25.3c0,4.4-3.3,8-7.4,8c-4,0-7.4-3.5-7.4-7.9c-0.1-4.3,3.4-8,7.5-8C212,17.5,215.3,21,215.3,25.3z"/>
		<path class="st0" d="M215.3,25.3c0,4.4-3.3,8-7.4,8c-4,0-7.4-3.5-7.4-7.9c-0.1-4.3,3.4-8,7.5-8C212,17.5,215.3,21,215.3,25.3z"/>
	</g>
	<g>
		<linearGradient id="SVGID_5_" gradientUnits="userSpaceOnUse" x1="200.4478" y1="72.3545" x2="215.2914" y2="72.3545">
			<stop  offset="0" style="stop-color:#2C3539"/>
			<stop  offset="1" style="stop-color:#414A4C"/>
		</linearGradient>
		<path class="st5" d="M207.8,64.5c4.2,0,7.5,3.4,7.5,7.8c0,4.4-3.2,7.8-7.3,7.8c-4.2,0-7.5-3.4-7.5-7.8
			C200.5,68,203.7,64.5,207.8,64.5z"/>
		<path class="st0" d="M207.8,64.5c4.2,0,7.5,3.4,7.5,7.8c0,4.4-3.2,7.8-7.3,7.8c-4.2,0-7.5-3.4-7.5-7.8
			C200.5,68,203.7,64.5,207.8,64.5z"/>
	</g>
	<g>
		<linearGradient id="SVGID_6_" gradientUnits="userSpaceOnUse" x1="200.4482" y1="48.9246" x2="215.2911" y2="48.9246">
			<stop  offset="0" style="stop-color:#2C3539"/>
			<stop  offset="1" style="stop-color:#414A4C"/>
		</linearGradient>
		<path class="st6" d="M215.3,49c0,4.4-3.2,7.8-7.3,7.8c-4.2,0-7.5-3.5-7.5-7.9c0-4.4,3.3-7.8,7.4-7.9C212,41,215.3,44.5,215.3,49z"
			/>
		<path class="st0" d="M215.3,49c0,4.4-3.2,7.8-7.3,7.8c-4.2,0-7.5-3.5-7.5-7.9c0-4.4,3.3-7.8,7.4-7.9C212,41,215.3,44.5,215.3,49z"
			/>
	</g>
</g>
</svg>
