<?xml version="1.0" encoding="UTF-8"?>
<svg width="1440px" height="155px" viewBox="0 0 1440 155" version="1.1" xmlns="http://www.w3.org/2000/svg" xmlns:xlink="http://www.w3.org/1999/xlink">
    <!-- Generator: Sketch 59 (86127) - https://sketch.com -->
    <title>Combined Shape</title>
    <desc>Created with Sketch.</desc>
    <g id="Page-1" stroke="none" stroke-width="1" fill="none" fill-rule="evenodd" stroke-linecap="square">
        <g id="Homepage---wide-Copy-7" transform="translate(0.000000, -3905.000000)" stroke="#FFFFFF" stroke-width="3">
            <g id="footer" transform="translate(0.000000, 3906.000000)">
                <path d="M0.697674419,91.940367 L1439.30233,91.940367 M0.697674419,61.059633 L1439.30233,61.059633 M0.697674419,121.417431 L1439.30233,121.417431 M0.697674419,152.298165 L1439.30233,152.298165 M368.4375,62.4633028 L368.4375,90.5366972 M464.0625,62.4633028 L464.0625,90.5366972 M416.953125,93.3440367 L416.953125,121.417431 M512.578125,93.3440367 L512.578125,121.417431 M369.140625,124.224771 L369.140625,152.298165 M272.8125,62.4633028 L272.8125,90.5366972 M321.328125,93.3440367 L321.328125,121.417431 M273.515625,124.224771 L273.515625,152.298165 M177.1875,62.4633028 L177.1875,90.5366972 M225.703125,93.3440367 L225.703125,121.417431 M177.890625,124.224771 L177.890625,152.298165 M81.5625,62.4633028 L81.5625,90.5366972 M130.078125,93.3440367 L130.078125,121.417431 M34.453125,93.3440367 L34.453125,121.417431 M82.265625,124.224771 L82.265625,152.298165 M464.765625,124.224771 L464.765625,152.298165 M846.5625,62.4633028 L846.5625,90.5366972 M942.1875,62.4633028 L942.1875,90.5366972 M895.078125,93.3440367 L895.078125,121.417431 M990.703125,93.3440367 L990.703125,121.417431 M847.265625,124.224771 L847.265625,152.298165 M750.9375,62.4633028 L750.9375,90.5366972 M799.453125,93.3440367 L799.453125,121.417431 M751.640625,124.224771 L751.640625,152.298165 M655.3125,62.4633028 L655.3125,90.5366972 M703.828125,93.3440367 L703.828125,121.417431 M656.015625,124.224771 L656.015625,152.298165 M559.6875,62.4633028 L559.6875,90.5366972 M608.203125,93.3440367 L608.203125,121.417431 M560.390625,124.224771 L560.390625,152.298165 M846.5625,62.4633028 L846.5625,90.5366972 M990.703125,93.3440367 L990.703125,121.417431 M656.015625,124.224771 L656.015625,152.298165 M608.203125,93.3440367 L608.203125,121.417431 M942.890625,124.224771 L942.890625,152.298165 M1324.6875,62.4633028 L1324.6875,90.5366972 M1420.3125,62.4633028 L1420.3125,90.5366972 M1420.3125,124.224771 L1420.3125,152.298165 M1373.20312,93.3440367 L1373.20312,121.417431 M1325.39062,124.224771 L1325.39062,152.298165 M1229.0625,62.4633028 L1229.0625,90.5366972 M1277.57812,93.3440367 L1277.57812,121.417431 M1229.76562,124.224771 L1229.76562,152.298165 M1133.4375,62.4633028 L1133.4375,90.5366972 M1181.95312,93.3440367 L1181.95312,121.417431 M1134.14062,124.224771 L1134.14062,152.298165 M1037.8125,62.4633028 L1037.8125,90.5366972 M1086.32812,93.3440367 L1086.32812,121.417431 M1038.51562,124.224771 L1038.51562,152.298165 M0.697674419,31.5825688 L1439.30233,31.5825688 M0.697674419,0.701834862 L1439.30233,0.701834862 M368.4375,2.10550459 L368.4375,30.1788991 M464.0625,2.10550459 L464.0625,30.1788991 M416.953125,32.9862385 L416.953125,61.059633 M512.578125,32.9862385 L512.578125,61.059633 M272.8125,2.10550459 L272.8125,30.1788991 M321.328125,32.9862385 L321.328125,61.059633 M177.1875,2.10550459 L177.1875,30.1788991 M225.703125,32.9862385 L225.703125,61.059633 M81.5625,2.10550459 L81.5625,30.1788991 M130.078125,32.9862385 L130.078125,61.059633 M34.453125,32.9862385 L34.453125,61.059633 M846.5625,2.10550459 L846.5625,30.1788991 M942.1875,2.10550459 L942.1875,30.1788991 M895.078125,32.9862385 L895.078125,61.059633 M990.703125,32.9862385 L990.703125,61.059633 M750.9375,2.10550459 L750.9375,30.1788991 M799.453125,32.9862385 L799.453125,61.059633 M655.3125,2.10550459 L655.3125,30.1788991 M703.828125,32.9862385 L703.828125,61.059633 M656.015625,63.8669725 L656.015625,91.940367 M559.6875,2.10550459 L559.6875,30.1788991 M608.203125,32.9862385 L608.203125,61.059633 M846.5625,2.10550459 L846.5625,30.1788991 M990.703125,32.9862385 L990.703125,61.059633 M608.203125,32.9862385 L608.203125,61.059633 M1324.6875,2.10550459 L1324.6875,30.1788991 M1420.3125,2.10550459 L1420.3125,30.1788991 M1373.20312,32.9862385 L1373.20312,61.059633 M1229.0625,2.10550459 L1229.0625,30.1788991 M1277.57812,32.9862385 L1277.57812,61.059633 M1133.4375,2.10550459 L1133.4375,30.1788991 M1181.95312,32.9862385 L1181.95312,61.059633 M1037.8125,2.10550459 L1037.8125,30.1788991 M1086.32812,32.9862385 L1086.32812,61.059633" id="Combined-Shape"></path>
            </g>
        </g>
    </g>
</svg>